<?xml version="1.0" encoding="utf-8"?>
<!-- Generator: Adobe Illustrator 22.1.0, SVG Export Plug-In . SVG Version: 6.00 Build 0)  -->
<svg version="1.1" id="Layer_1" xmlns="http://www.w3.org/2000/svg" xmlns:xlink="http://www.w3.org/1999/xlink" x="0px" y="0px"
	 viewBox="0 0 256 256" enable-background="new 0 0 256 256" xml:space="preserve">
<g>
	<path fill="#1A1A1A" stroke="#1A1A1A" stroke-width="5" stroke-miterlimit="10" d="M125.5,134.6l31.7-18.9H86.3v-6.9h80.9v8.1
		l-34,20.9v6.8H195v7h-61.8v25.2c0.6,11.2-4.9,17-16.8,17.3c-8.2,0.2-14.2,0.3-18,0.3c-0.2-2.4-0.6-5-1.4-8c2.2,0.1,4.7,0.3,7.4,0.3
		c1.3,0,2.8,0,4.4,0.1c1.3,0,3.2,0,5.7,0c4.2,0,7-0.8,8.7-2.5c1.7-1.6,2.5-4.4,2.4-8.6v-24.1H61v-7h64.5V134.6z M65.7,83.5h124v25
		h-7.6v-18H73.3v18h-7.6V83.5z M121.1,64l7.2-2.6c2.1,4.3,4.9,10.6,8.4,19.1l-7.3,2.8C126.8,76,124,69.6,121.1,64z"/>
</g>
</svg>
