<?xml version="1.0" encoding="utf-8"?>
<!-- Generator: Adobe Illustrator 22.1.0, SVG Export Plug-In . SVG Version: 6.00 Build 0)  -->
<svg version="1.1" id="Layer_1" xmlns="http://www.w3.org/2000/svg" xmlns:xlink="http://www.w3.org/1999/xlink" x="0px" y="0px"
	 viewBox="0 0 256 256" enable-background="new 0 0 256 256" xml:space="preserve">
<rect x="96.8" y="187.7" transform="matrix(0.5982 -0.8014 0.8014 0.5982 -114.6228 160.4743)" width="11.9" height="13.7"/>
<polygon fill="#333333" points="118.2,178.9 95.5,210.5 75.4,187.3 55.1,168.1 85.8,144.9 "/>
<path fill="#1A1A1A" d="M233.2,102.8l-98.3,93.6c-3.1,3-8.1,2.9-11-0.3l-27.5-32.9l-25.6-22.7c-3-3.1-2.9-8.1,0.3-11l98.3-93.6
	c3.1-3,8.1-2.9,11,0.3c0,0,10.4,1.1,30.6,22.4c19.5,20.5,22.4,33.3,22.4,33.3C236.4,94.9,236.3,99.8,233.2,102.8z"/>
<path fill="none" stroke="#666666" stroke-miterlimit="10" d="M153.7,157"/>
<path fill="none" stroke="#666666" stroke-miterlimit="10" d="M109.4,109.1"/>
</svg>
