<?xml version="1.0" encoding="utf-8"?>
<!-- Generator: Adobe Illustrator 22.1.0, SVG Export Plug-In . SVG Version: 6.00 Build 0)  -->
<svg version="1.1" id="Layer_1" xmlns="http://www.w3.org/2000/svg" xmlns:xlink="http://www.w3.org/1999/xlink" x="0px" y="0px"
	 viewBox="0 0 256 256" enable-background="new 0 0 256 256" xml:space="preserve">
<g>
	<path fill="#1A1A1A" d="M140.5,216.1c0,5.1-1.1,9.2-6.2,9.2h-12.4c-5.1,0-6.2-4.1-6.2-9.2c0,0,3.9-15.4,12.4-15.4h0
		C136.6,200.7,140.5,216.1,140.5,216.1z"/>
	<path fill="#1A1A1A" d="M140.5,216.1c0,3.4-2.8,6.2-6.2,6.2h-12.4c-3.4,0-6.2-2.8-6.2-6.2v-76.6c0-6.9,5.6-12.4,12.4-12.4
		c6.9,0,12.4,5.6,12.4,12.4V216.1z"/>
	<path fill="#1A1A1A" d="M104.4,51.7v52.1c0,0.8-0.6,1.4-1.4,1.4H86.9c-0.8,0-1.4-0.6-1.4-1.4V51.7H104.4z"/>
	<polygon points="94.9,30.7 104.4,51.7 85.5,51.7 94.9,30.7 	"/>
	<polygon points="127.8,30.8 137.2,51.8 118.4,51.8 127.8,30.8 	"/>
	<polygon points="161.1,30.8 170.5,51.8 151.6,51.8 161.1,30.8 	"/>
	<path fill="#1A1A1A" d="M137,51.7v52.1c0,0.8-0.6,1.4-1.4,1.4H120c-0.8,0-1.4-0.6-1.4-1.4V51.7H137z"/>
	<path fill="#1A1A1A" d="M170.3,51.7v52.1c0,0.8-0.6,1.4-1.4,1.4h-15.7c-0.8,0-1.4-0.6-1.4-1.4V51.7H170.3z"/>
	<circle fill="#1A1A1A" cx="95.9" cy="113.5" r="8.2"/>
	<circle fill="#1A1A1A" cx="159.9" cy="113.5" r="8.2"/>
	<circle fill="#1A1A1A" cx="128" cy="116.5" r="11.3"/>
	
		<rect x="105.7" y="109.2" transform="matrix(0.1736 -0.9848 0.9848 0.1736 -22.2355 204.1308)" fill="#1A1A1A" width="9.6" height="12.3"/>
	
		<rect x="140.5" y="109" transform="matrix(-0.1736 -0.9848 0.9848 -0.1736 56.9462 278.4137)" fill="#1A1A1A" width="9.6" height="12.7"/>
</g>
</svg>
