<?xml version="1.0" encoding="utf-8"?>
<!-- Generator: Adobe Illustrator 22.1.0, SVG Export Plug-In . SVG Version: 6.00 Build 0)  -->
<svg version="1.1" id="Layer_1" xmlns="http://www.w3.org/2000/svg" xmlns:xlink="http://www.w3.org/1999/xlink" x="0px" y="0px"
	 viewBox="0 0 256 256" enable-background="new 0 0 256 256" xml:space="preserve">
<g>
	
		<rect x="94.5" y="116" transform="matrix(0.7241 -0.6897 0.6897 0.7241 -55.1077 138.3618)" fill="#1A1A1A" width="101.7" height="44.1"/>
	<path d="M196.9,119.4l-30.4-31.9c0,0,16-15.2,31.2,0.8C212.9,104.2,196.9,119.4,196.9,119.4z"/>
	<polygon points="123.8,189.1 70.5,209.4 70.5,209.4 93.4,157.2 	"/>
	
		<rect x="48.6" y="91.8" transform="matrix(0.4585 -0.8887 0.8887 0.4585 -43.8555 142.9906)" fill="#1A1A1A" width="93.7" height="31.4"/>
	<path d="M130.6,73.6l-27.9-14.4c0,0,9.3-18,23.3-10.8S130.6,73.6,130.6,73.6z"/>
	<polygon points="87.9,156.3 51.7,192.1 51.7,192.1 60,141.9 	"/>
</g>
</svg>
