<?xml version="1.0" encoding="utf-8"?>
<!-- Generator: Adobe Illustrator 22.1.0, SVG Export Plug-In . SVG Version: 6.00 Build 0)  -->
<svg version="1.1" id="Layer_1" xmlns="http://www.w3.org/2000/svg" xmlns:xlink="http://www.w3.org/1999/xlink" x="0px" y="0px"
	 viewBox="0 0 256 256" enable-background="new 0 0 256 256" xml:space="preserve">
<g>
	<g>
		<g>
			<rect x="120.7" y="48" fill="#1A1A1A" width="13.3" height="80"/>
		</g>
	</g>
	<g>
		<g>
			
				<rect x="110.9" y="89" transform="matrix(0.5878 -0.809 0.809 0.5878 -15.1762 161.4936)" fill="#1A1A1A" width="80" height="13.3"/>
		</g>
	</g>
	<g>
		<g>
			
				<rect x="125.4" y="109" transform="matrix(0.9511 -0.309 0.309 0.9511 -27.6384 56.7765)" fill="#1A1A1A" width="80" height="13.3"/>
		</g>
	</g>
	<g>
		<g>
			
				<rect x="158.7" y="100.4" transform="matrix(0.309 -0.9511 0.9511 0.309 -19.1904 254.308)" fill="#1A1A1A" width="13.3" height="80"/>
		</g>
	</g>
	<g>
		<g>
			
				<rect x="144.2" y="120.4" transform="matrix(0.809 -0.5878 0.5878 0.809 -65.4409 119.315)" fill="#1A1A1A" width="13.3" height="80"/>
		</g>
	</g>
	<g>
		<g>
			<rect x="120.7" y="128" fill="#1A1A1A" width="13.3" height="80"/>
		</g>
	</g>
	<g>
		<g>
			
				<rect x="63.9" y="153.7" transform="matrix(0.5878 -0.809 0.809 0.5878 -86.9204 150.1304)" fill="#1A1A1A" width="80" height="13.3"/>
		</g>
	</g>
	<g>
		<g>
			
				<rect x="49.3" y="133.7" transform="matrix(0.9511 -0.309 0.309 0.9511 -39.0016 34.4751)" fill="#1A1A1A" width="80" height="13.3"/>
		</g>
	</g>
	<g>
		<g>
			
				<rect x="82.7" y="75.6" transform="matrix(0.309 -0.9511 0.9511 0.309 -48.2521 164.8653)" fill="#1A1A1A" width="13.3" height="80"/>
		</g>
	</g>
	<g>
		<g>
			
				<rect x="97.2" y="55.6" transform="matrix(0.809 -0.5878 0.5878 0.809 -36.3792 79.315)" fill="#1A1A1A" width="13.3" height="80"/>
		</g>
	</g>
	<g>
		<g>
			<rect x="120.7" y="48" fill="#1A1A1A" width="13.3" height="80"/>
		</g>
	</g>
</g>
</svg>
