<?xml version="1.0" encoding="utf-8"?>
<!-- Generator: Adobe Illustrator 22.1.0, SVG Export Plug-In . SVG Version: 6.00 Build 0)  -->
<svg version="1.1" id="Layer_1" xmlns="http://www.w3.org/2000/svg" xmlns:xlink="http://www.w3.org/1999/xlink" x="0px" y="0px"
	 viewBox="0 0 256 256" enable-background="new 0 0 256 256" xml:space="preserve">
<g>
	<path fill="#1A1A1A" d="M39.9,140.5c-5.1,0-9.2-1.1-9.2-6.2v-12.4c0-5.1,4.1-6.2,9.2-6.2c0,0,15.4,3.9,15.4,12.4v0
		C55.3,136.6,39.9,140.5,39.9,140.5z"/>
	<path fill="#1A1A1A" d="M39.9,140.5c-3.4,0-6.2-2.8-6.2-6.2v-12.4c0-3.4,2.8-6.2,6.2-6.2h76.6c6.9,0,12.4,5.6,12.4,12.4
		c0,6.9-5.6,12.4-12.4,12.4H39.9z"/>
	<path fill="#1A1A1A" d="M204.3,104.4h-52.1c-0.8,0-1.4-0.6-1.4-1.4V86.9c0-0.8,0.6-1.4,1.4-1.4h52.1V104.4z"/>
	<polygon fill="#1A1A1A" points="225.3,94.9 204.3,104.4 204.3,85.5 225.3,94.9 	"/>
	<polygon fill="#1A1A1A" points="225.2,127.8 204.2,137.2 204.2,118.4 225.2,127.8 	"/>
	<polygon fill="#1A1A1A" points="225.2,161.1 204.2,170.5 204.2,151.6 225.2,161.1 	"/>
	<path fill="#1A1A1A" d="M204.3,137h-52.1c-0.8,0-1.4-0.6-1.4-1.4V120c0-0.8,0.6-1.4,1.4-1.4h52.1V137z"/>
	<path fill="#1A1A1A" d="M204.3,170.3h-52.1c-0.8,0-1.4-0.6-1.4-1.4v-15.7c0-0.8,0.6-1.4,1.4-1.4h52.1V170.3z"/>
	<circle fill="#1A1A1A" cx="142.5" cy="95.9" r="8.2"/>
	<circle fill="#1A1A1A" cx="142.5" cy="159.9" r="8.2"/>
	<circle fill="#1A1A1A" cx="139.5" cy="128" r="11.3"/>
	
		<rect x="135.9" y="104.4" transform="matrix(0.9848 0.1736 -0.1736 0.9848 21.3288 -22.7507)" fill="#1A1A1A" width="9.6" height="12.3"/>
	
		<rect x="135.9" y="138.9" transform="matrix(0.9848 -0.1736 0.1736 0.9848 -23.0906 26.6368)" fill="#1A1A1A" width="9.6" height="12.7"/>
</g>
</svg>
